# xmcd
# 
# Track frame offsets:
#     150
#     15537
#     31697
#     54118
#     73968
#     87558
#     105512
#     122036
#     140366
#     157178
#     168016
#     185561
# 
# Disc length: 2712
# 
# Revision: 4
# Processed by: cddbd v1.5.2PL0 Copyright (c) Steve Scherf et al.
# Submitted via: fre:ac v1.0.31
# 
DISCID=980a960c
DTITLE=Ben Harper - By my side
DYEAR=2012
DGENRE=Blues
TTITLE0=Forever
TTITLE1=By my side
TTITLE2=Gold to me
TTITLE3=Diamonds on the inside
TTITLE4=In the colors
TTITLE5=Beloved one
TTITLE6=Not fire not ice
TTITLE7=Morning yearning
TTITLE8=Feel love
TTITLE9=Happy everafter in your eyes
TTITLE10=Waiting on an angel
TTITLE11=Crazy amazing
EXTD=
EXTT0=
EXTT1=
EXTT2=
EXTT3=
EXTT4=
EXTT5=
EXTT6=
EXTT7=
EXTT8=
EXTT9=
EXTT10=
EXTT11=
PLAYORDER=
